<?xml version="1.0" standalone="no"?>
<!DOCTYPE svg PUBLIC "-//W3C//DTD SVG 20010904//EN"
 "http://www.w3.org/TR/2001/REC-SVG-20010904/DTD/svg10.dtd">
<svg version="1.0" xmlns="http://www.w3.org/2000/svg"
 width="26.000000pt" height="26.000000pt" viewBox="0 0 26.000000 26.000000"
 preserveAspectRatio="xMidYMid meet">
<metadata>
Created by potrace 1.15, written by Peter Selinger 2001-2017
</metadata>
<g transform="translate(0.000000,26.000000) scale(0.100000,-0.100000)"
fill="#000000" stroke="none">
<path d="M6 224 c-3 -9 -6 -51 -6 -95 0 -64 3 -79 15 -79 9 0 18 -7 21 -15 8
-19 28 -19 44 0 16 20 84 20 100 0 17 -21 41 -19 47 4 3 12 11 17 19 14 11 -4
14 6 14 47 0 63 -28 110 -66 110 -15 0 -24 6 -24 15 0 23 -155 22 -164 -1z"/>
</g>
</svg>
